<svg width="98" height="76" viewBox="0 0 98 76" fill="none" xmlns="http://www.w3.org/2000/svg">
  <path d="M5.91562 63.6087L0.308594 63.0712L4.29151 67.0547C4.85436 67.6174 5.44028 67.9986 5.93148 68.2852C6.1871 68.4344 6.36835 68.5334 6.52095 68.6168L6.54225 68.6284C6.73597 68.7337 6.8854 68.8154 7.08899 68.9457L7.12631 68.9692L7.16476 68.9919C11.0371 71.2366 15.1931 72.8913 19.4987 73.9922L19.5047 73.993C22.9539 74.864 26.4732 75.4129 30.03 75.6072H30.036L30.042 75.608C34.6603 75.8322 39.2081 75.5772 43.7393 74.7029C50.9588 73.343 57.637 70.5227 63.661 66.2477L63.6672 66.2428C68.1076 63.0663 71.9572 59.215 75.1858 54.8572C77.8142 51.3522 79.9448 47.5052 81.6181 43.5154C83.08 40.0627 84.2935 36.0667 84.9783 32.3341L84.9791 32.3324C85.6373 28.7563 85.9303 25.1489 85.8583 21.5123C87.8828 19.9302 89.8062 18.2123 91.5337 16.1646L91.5418 16.1554L91.5491 16.1461C92.4274 15.0791 93.3964 13.8795 94.3378 12.4L97.6908 7.13185L91.885 9.43205C91.0205 9.77479 90.1851 10.0919 89.3683 10.3765C90.4975 8.7868 91.3936 7.00662 92.0129 5.00755L93.4684 0.314941L89.1303 2.62122C86.7455 3.88898 84.3971 4.93971 81.9403 5.6333L81.9395 5.63362C81.563 5.74018 81.1473 5.89168 80.8249 6.00917L80.8207 6.01069C80.722 6.04687 80.6313 6.07982 80.5544 6.1071C80.1505 6.24949 79.8971 6.31862 79.7077 6.34121C79.6243 6.35124 79.5781 6.34849 79.5579 6.34606C79.5482 6.34493 79.5433 6.34355 79.5433 6.34355L79.5409 6.34274C79.5409 6.34274 79.5344 6.33967 79.5239 6.33263C79.5134 6.32558 79.4948 6.31231 79.4697 6.28948C79.4195 6.2435 79.3369 6.15543 79.2325 5.99725L79.0576 5.73311L78.8099 5.5351C73.842 1.55356 68.1315 -0.073216 61.7591 1.27744L61.7554 1.27825C55.3058 2.65789 50.6311 6.47048 47.8185 12.3359L47.8167 12.3395C46.2748 15.5715 45.67 19.0191 46.0229 22.5448L45.908 22.5343L45.6876 22.5141C44.9751 22.4487 44.3076 22.3835 43.6441 22.2853C39.4992 21.5932 35.5298 20.4856 31.693 18.82C28.7218 17.5294 25.9229 16.0086 23.2843 14.1409L23.2786 14.1368L23.2728 14.1328C19.6999 11.6408 16.5148 8.80792 13.7874 5.48759L13.7795 5.47803L13.7716 5.46856C13.6032 5.2687 13.3538 4.99695 13.0281 4.77603C12.6927 4.54856 12.0776 4.24451 11.2921 4.37541C10.5245 4.50339 10.0498 4.97258 9.81702 5.26133C9.59327 5.53891 9.43979 5.83778 9.33722 6.06047C8.36598 8.04181 7.66633 10.0866 7.38487 12.3686C6.73257 17.5052 7.83932 22.1768 10.6511 26.296C10.4668 26.2154 10.2049 26.1114 9.91464 26.0509C9.59991 25.9853 8.91539 25.899 8.21979 26.312C7.50249 26.7379 7.25122 27.4068 7.16015 27.7631C7.06916 28.119 7.05815 28.4659 7.05815 28.7014V28.7234L7.05864 28.7454C7.12825 31.9465 7.96771 34.9588 9.60549 37.7479C11.0601 40.248 12.878 42.3224 15.053 43.9342C14.7823 44.0117 14.4764 44.1501 14.1882 44.3972C13.5384 44.9542 13.3755 45.7069 13.4093 46.2688C13.437 46.7318 13.5918 47.1219 13.72 47.3857C13.7769 47.5134 13.8431 47.6682 13.9159 47.8388L13.9165 47.8401C14.1097 48.2923 14.3502 48.8554 14.5935 49.3197C16.9789 54.0138 20.7421 57.2799 25.7204 59.0663C25.9963 59.1665 26.2726 59.2586 26.5498 59.3433C20.2425 62.923 13.4491 64.3308 5.91562 63.6087Z" fill="#DA3555"/>
</svg>
