<svg width="125" height="91" viewBox="0 0 125 91" fill="none" xmlns="http://www.w3.org/2000/svg">
  <path d="M19.9155 73.6083L14.3086 73.0708L18.2914 77.0542C18.8543 77.6168 19.4402 77.9981 19.9314 78.2847C20.1872 78.434 20.3685 78.533 20.5212 78.6164L20.5421 78.6279C20.7358 78.7331 20.8853 78.8149 21.0888 78.9452L21.1262 78.9687L21.1646 78.9913C25.0369 81.236 29.1928 82.8906 33.4982 83.9915L33.5043 83.9923C36.9534 84.8633 40.4726 85.4122 44.0293 85.6064H44.0353L44.0413 85.6073C48.6595 85.8315 53.2072 85.5765 57.7384 84.7022C64.9577 83.3423 71.6357 80.5221 77.6596 76.2472L77.6658 76.2423C82.1061 73.0659 85.9556 69.2147 89.1841 64.8569C91.8125 61.352 93.9431 57.5052 95.6163 53.5154C97.0782 50.0628 98.2916 46.0669 98.9764 42.3344L98.9772 42.3327C99.6354 38.7566 99.9284 35.1493 99.8563 31.5128C101.881 29.9307 103.804 28.2129 105.532 26.1652L105.54 26.156L105.547 26.1467C106.425 25.0797 107.394 23.8801 108.336 22.4007L111.689 17.1327L105.883 19.4328C105.018 19.7756 104.183 20.0926 103.366 20.3773C104.496 18.7876 105.392 17.0074 106.011 15.0084L107.466 10.3159L103.128 12.6221C100.744 13.8899 98.3952 14.9406 95.9384 15.6342L95.9376 15.6345C95.5612 15.741 95.1455 15.8925 94.8231 16.01L94.8189 16.0115C94.7202 16.0477 94.6295 16.0807 94.5526 16.1079C94.1487 16.2503 93.8953 16.3195 93.7059 16.342C93.6225 16.3521 93.5764 16.3493 93.5561 16.3469C93.5464 16.3458 93.5415 16.3444 93.5415 16.3444L93.5391 16.3436C93.5391 16.3436 93.5326 16.3405 93.5221 16.3335C93.5116 16.3264 93.493 16.3131 93.4679 16.2903C93.4177 16.2443 93.3351 16.1563 93.2307 15.9981L93.0559 15.734L92.8082 15.536C87.8404 11.5545 82.13 9.92777 75.7577 11.2784L75.754 11.2792C69.3045 12.6588 64.63 16.4713 61.8174 22.3366L61.8156 22.3403C60.2738 25.5721 59.669 29.0196 60.0219 32.5453L59.907 32.5348L59.6865 32.5146C58.9741 32.4492 58.3066 32.384 57.6431 32.2858C53.4984 31.5937 49.529 30.4861 45.6923 28.8206C42.7211 27.53 39.9223 26.0092 37.2838 24.1416L37.2781 24.1375L37.2723 24.1335C33.6995 21.6415 30.5145 18.8087 27.7871 15.4884L27.7792 15.4789L27.7713 15.4694C27.6029 15.2696 27.3535 14.9978 27.0278 14.7769C26.6924 14.5494 26.0774 14.2454 25.2918 14.3763C24.5243 14.5043 24.0496 14.9735 23.8168 15.2622C23.5931 15.5398 23.4396 15.8386 23.337 16.0613C22.3658 18.0426 21.6662 20.0874 21.3847 22.3693C20.7324 27.5058 21.8392 32.1773 24.6509 36.2964C24.4666 36.2158 24.2046 36.1118 23.9144 36.0513C23.5997 35.9857 22.9152 35.8994 22.2196 36.3124C21.5023 36.7382 21.2511 37.4072 21.16 37.7635C21.069 38.1194 21.058 38.4662 21.058 38.7017V38.7237L21.0585 38.7458C21.1281 41.9468 21.9675 44.959 23.6053 47.748C25.0598 50.2481 26.8777 52.3224 29.0526 53.9342C28.782 54.0117 28.4761 54.1501 28.1879 54.3971C27.5381 54.9542 27.3752 55.7069 27.409 56.2688C27.4367 56.7317 27.5915 57.1219 27.7197 57.3856C27.7766 57.5133 27.8428 57.6681 27.9156 57.8387L27.9162 57.8399C28.1094 58.2922 28.3499 58.8552 28.5932 59.3195C30.9786 64.0136 34.7416 67.2796 39.7199 69.066C39.9957 69.1662 40.272 69.2582 40.5492 69.3429C34.2421 72.9226 27.4488 74.3303 19.9155 73.6083Z" stroke="#1A0505" stroke-width="10" stroke-miterlimit="10"/>
</svg>
