<svg width="125" height="91" viewBox="0 0 125 91" fill="none" xmlns="http://www.w3.org/2000/svg">
  <path d="M19.9156 73.6087L14.3086 73.0712L18.2915 77.0547C18.8544 77.6174 19.4403 77.9986 19.9315 78.2852C20.1871 78.4344 20.3684 78.5334 20.5209 78.6168L20.5423 78.6284C20.736 78.7337 20.8854 78.8154 21.089 78.9457L21.1263 78.9692L21.1648 78.9919C25.0371 81.2366 29.1931 82.8913 33.4987 83.9922L33.5047 83.993C36.9539 84.864 40.4732 85.4129 44.03 85.6072H44.036L44.042 85.608C48.6603 85.8322 53.2081 85.5772 57.7393 84.7029C64.9588 83.343 71.637 80.5227 77.661 76.2477L77.6672 76.2428C82.1076 73.0663 85.9572 69.215 89.1858 64.8572C91.8142 61.3522 93.9448 57.5052 95.6181 53.5154C97.08 50.0627 98.2935 46.0667 98.9783 42.3341L98.9791 42.3324C99.6373 38.7563 99.9303 35.1489 99.8583 31.5123C101.883 29.9302 103.806 28.2123 105.534 26.1646L105.542 26.1554L105.549 26.1461C106.427 25.0791 107.396 23.8795 108.338 22.4L111.691 17.1318L105.885 19.432C105.02 19.7748 104.185 20.0919 103.368 20.3765C104.498 18.7868 105.394 17.0066 106.013 15.0075L107.468 10.3149L103.13 12.6212C100.745 13.889 98.3971 14.9397 95.9403 15.6333L95.9395 15.6336C95.563 15.7402 95.1473 15.8917 94.8249 16.0092L94.8207 16.0107C94.722 16.0469 94.6313 16.0798 94.5544 16.1071C94.1505 16.2495 93.8971 16.3186 93.7077 16.3412C93.6243 16.3512 93.5781 16.3485 93.5579 16.3461C93.5482 16.3449 93.5433 16.3436 93.5433 16.3436L93.5409 16.3427C93.5409 16.3427 93.5344 16.3397 93.5239 16.3326C93.5134 16.3256 93.4948 16.3123 93.4697 16.2895C93.4195 16.2435 93.3369 16.1554 93.2325 15.9972L93.0576 15.7331L92.8099 15.5351C87.842 11.5536 82.1315 9.92678 75.7591 11.2774L75.7554 11.2783C69.3058 12.6579 64.6311 16.4705 61.8185 22.3359L61.8167 22.3395C60.2748 25.5715 59.67 29.0191 60.0229 32.5448L59.908 32.5343L59.6876 32.5141C58.9751 32.4487 58.3076 32.3835 57.6441 32.2853C53.4992 31.5932 49.5298 30.4856 45.693 28.82C42.7218 27.5294 39.9229 26.0086 37.2843 24.1409L37.2786 24.1368L37.2728 24.1328C33.6999 21.6408 30.5148 18.8079 27.7874 15.4876L27.7795 15.478L27.7716 15.4686C27.6032 15.2687 27.3538 14.9969 27.0281 14.776C26.6927 14.5486 26.0776 14.2445 25.2921 14.3754C24.5245 14.5034 24.0498 14.9726 23.817 15.2613C23.5933 15.5389 23.4398 15.8378 23.3372 16.0605C22.366 18.0418 21.6663 20.0866 21.3849 22.3686C20.7326 27.5052 21.8393 32.1768 24.6511 36.296C24.4668 36.2154 24.2049 36.1114 23.9146 36.0509C23.5999 35.9853 22.9154 35.899 22.2198 36.312C21.5025 36.7379 21.2512 37.4068 21.1601 37.7631C21.0692 38.119 21.0581 38.4659 21.0581 38.7014V38.7234L21.0586 38.7454C21.1283 41.9465 21.9677 44.9588 23.6055 47.7479C25.0601 50.248 26.878 52.3224 29.053 53.9342C28.7823 54.0117 28.4764 54.1501 28.1882 54.3972C27.5384 54.9542 27.3755 55.7069 27.4093 56.2688C27.437 56.7318 27.5918 57.1219 27.72 57.3857C27.7769 57.5134 27.8431 57.6682 27.9159 57.8388L27.9165 57.8401C28.1097 58.2923 28.3502 58.8554 28.5935 59.3197C30.9789 64.0138 34.7421 67.2799 39.7204 69.0663C39.9963 69.1665 40.2726 69.2586 40.5498 69.3433C34.2425 72.923 27.4491 74.3308 19.9156 73.6087Z" stroke="#ADADAD" stroke-width="10" stroke-miterlimit="10"/>
</svg>
