<svg width="142" height="142" viewBox="0 0 142 142" fill="none" xmlns="http://www.w3.org/2000/svg">
  <path fill-rule="evenodd" clip-rule="evenodd" d="M25.95 128.21H116.27V128.22C122.86 128.22 128.22 122.86 128.22 116.27V25.95C128.22 19.36 122.86 14 116.27 14H25.95C19.36 14 14 19.36 14 25.95V116.26C14 122.85 19.36 128.21 25.95 128.21ZM26.77 35.95C26.77 30.89 30.89 26.77 35.95 26.77H106.26C111.32 26.77 115.43 30.89 115.43 35.95V106.27C115.43 111.33 111.32 115.44 106.26 115.44H35.94C30.88 115.44 26.77 111.33 26.77 106.27V35.95ZM98.7797 96.5499V45.6599H80.2097V72.3099L62.0097 45.6599H43.4297V96.5499H62.0097V70.9399L80.2097 96.5499H98.7797Z" fill="#1A0505"/>
</svg>
