<svg width="142" height="142" viewBox="0 0 142 142" fill="none" xmlns="http://www.w3.org/2000/svg">
  <path fill-rule="evenodd" clip-rule="evenodd" d="M17.75 29.5833C17.75 23.0454 23.0454 17.75 29.5833 17.75H89.7669C94.4707 17.75 98.9857 19.625 102.317 22.9502L119.05 39.6833C122.375 43.0143 124.25 47.5293 124.25 52.2331V65.0718C124.25 70.2903 117.988 72.9569 114.231 69.3359C113.071 68.2236 112.417 66.6811 112.417 65.0718V53.25H53.25V112.417H76.9167C80.1827 112.417 82.8333 115.067 82.8333 118.333C82.8333 121.599 80.1827 124.25 76.9167 124.25H52.2331C47.5234 124.25 43.0144 122.375 39.6833 119.05L22.9502 102.317C19.625 98.9856 17.75 94.4707 17.75 89.7669V29.5833ZM89.7669 29.5833H37.9499L49.7832 41.4167H104.05L93.9502 31.3167C92.8438 30.2044 91.3348 29.5833 89.7669 29.5833ZM41.4167 49.7832L29.5833 37.9499V89.7669C29.5833 91.3348 30.2044 92.8379 31.3167 93.9502L41.4167 104.05V49.7832Z" fill="#1A0505"/>
  <path d="M98.4108 71.0347C96.4284 71.2909 94.6667 72.9275 94.6667 75.2757V117.524C94.6667 120.122 97.783 121.467 99.6704 119.674L107.725 112.001L116.427 132.073C117.924 135.523 121.975 137.051 125.371 135.448C128.649 133.898 130.08 129.996 128.584 126.688L119.524 106.673H130.363C133.026 106.673 134.337 103.435 132.42 101.589L101.889 72.2018C100.873 71.2256 99.6003 70.8809 98.4108 71.0347Z" fill="#1A0505"/>
</svg>
