<svg width="142" height="142" viewBox="0 0 142 142" fill="none" xmlns="http://www.w3.org/2000/svg">
  <path d="M98.4108 71.0347C96.4284 71.2909 94.6667 72.9275 94.6667 75.2757V117.524C94.6667 120.122 97.783 121.467 99.6704 119.674L107.725 112.001L116.427 132.073C117.924 135.523 121.975 137.051 125.371 135.448C128.649 133.898 130.08 129.996 128.584 126.688L119.524 106.673H130.363C133.026 106.673 134.337 103.435 132.42 101.589L101.889 72.2018C100.873 71.2256 99.6003 70.8809 98.4108 71.0347Z" fill="#1A0505"/>
  <path d="M29.5833 17.75C23.0454 17.75 17.75 23.0454 17.75 29.5833V89.7669C17.75 94.4707 19.625 98.9856 22.9502 102.317L39.6833 119.05C43.0144 122.375 47.5234 124.25 52.2331 124.25H76.9167C80.1827 124.25 82.8333 121.599 82.8333 118.333C82.8333 115.067 80.1827 112.417 76.9167 112.417H53.25V53.25H112.417V65.0718C112.417 66.6811 113.071 68.2236 114.231 69.3359C117.988 72.9569 124.25 70.2903 124.25 65.0718V52.2331C124.25 47.5293 122.375 43.0143 119.05 39.6833L102.317 22.9502C98.9857 19.625 94.4707 17.75 89.7669 17.75H29.5833Z" fill="#1A0505"/>
</svg>
