<svg width="262" height="52" viewBox="0 0 262 52" fill="none" xmlns="http://www.w3.org/2000/svg">
  <g clip-path="url(#clip0_2475_209)">
    <path d="M47.0964 24.3041C47.0004 24.4721 46.8624 24.5561 46.6824 24.5561C46.5504 24.5561 46.3824 24.4841 46.1784 24.3401C45.9744 24.1841 45.6984 24.0161 45.3504 23.8361C45.0144 23.6441 44.5944 23.4761 44.0904 23.3321C43.5864 23.1761 42.9744 23.0981 42.2544 23.0981C41.6064 23.0981 41.0124 23.1941 40.4724 23.3861C39.9444 23.5661 39.4884 23.8121 39.1044 24.1241C38.7324 24.4361 38.4444 24.8021 38.2404 25.2221C38.0364 25.6301 37.9344 26.0621 37.9344 26.5181C37.9344 27.0821 38.0784 27.5501 38.3664 27.9221C38.6544 28.2941 39.0264 28.6121 39.4824 28.8761C39.9504 29.1401 40.4844 29.3681 41.0844 29.5601C41.6844 29.7521 42.2904 29.9441 42.9024 30.1361C43.5264 30.3281 44.1384 30.5441 44.7384 30.7841C45.3384 31.0121 45.8664 31.3001 46.3224 31.6481C46.7904 31.9961 47.1684 32.4221 47.4564 32.9261C47.7444 33.4301 47.8884 34.0421 47.8884 34.7621C47.8884 35.5421 47.7504 36.2681 47.4744 36.9401C47.1984 37.6121 46.7904 38.1941 46.2504 38.6861C45.7224 39.1781 45.0684 39.5681 44.2884 39.8561C43.5084 40.1441 42.6144 40.2881 41.6064 40.2881C40.3464 40.2881 39.2604 40.0901 38.3484 39.6941C37.4364 39.2861 36.6204 38.7581 35.9004 38.1101L36.2964 37.4981C36.3564 37.4021 36.4224 37.3301 36.4944 37.2821C36.5784 37.2341 36.6864 37.2101 36.8184 37.2101C36.9744 37.2101 37.1604 37.3061 37.3764 37.4981C37.6044 37.6901 37.9044 37.9001 38.2764 38.1281C38.6484 38.3441 39.1044 38.5481 39.6444 38.7401C40.1964 38.9321 40.8744 39.0281 41.6784 39.0281C42.4344 39.0281 43.1004 38.9261 43.6764 38.7221C44.2524 38.5061 44.7324 38.2181 45.1164 37.8581C45.5004 37.4981 45.7884 37.0781 45.9804 36.5981C46.1844 36.1061 46.2864 35.5901 46.2864 35.0501C46.2864 34.4501 46.1424 33.9521 45.8544 33.5561C45.5664 33.1601 45.1884 32.8241 44.7204 32.5481C44.2524 32.2721 43.7184 32.0381 43.1184 31.8461C42.5304 31.6541 41.9244 31.4621 41.3004 31.2701C40.6764 31.0781 40.0644 30.8681 39.4644 30.6401C38.8764 30.4121 38.3484 30.1241 37.8804 29.7761C37.4124 29.4281 37.0344 29.0081 36.7464 28.5161C36.4584 28.0121 36.3144 27.3881 36.3144 26.6441C36.3144 26.0081 36.4524 25.3961 36.7284 24.8081C37.0044 24.2201 37.3944 23.7041 37.8984 23.2601C38.4144 22.8161 39.0384 22.4621 39.7704 22.1981C40.5024 21.9341 41.3244 21.8021 42.2364 21.8021C43.3284 21.8021 44.2944 21.9581 45.1344 22.2701C45.9864 22.5821 46.7604 23.0621 47.4564 23.7101L47.0964 24.3041Z" fill="#CBCBCB"/>
    <path d="M52.4714 25.1141C53.2994 24.1061 54.2414 23.3021 55.2974 22.7021C56.3654 22.1021 57.5594 21.8021 58.8794 21.8021C59.8634 21.8021 60.7274 21.9581 61.4714 22.2701C62.2274 22.5821 62.8514 23.0321 63.3434 23.6201C63.8354 24.2081 64.2074 24.9161 64.4594 25.7441C64.7114 26.5721 64.8374 27.5081 64.8374 28.5521V40.0001H63.1094V28.5521C63.1094 26.8721 62.7254 25.5581 61.9574 24.6101C61.1894 23.6501 60.0194 23.1701 58.4474 23.1701C57.2834 23.1701 56.1914 23.4701 55.1714 24.0701C54.1634 24.6581 53.2634 25.4801 52.4714 26.5361V40.0001H50.7434V13.8101H52.4714V25.1141Z" fill="#CBCBCB"/>
    <path d="M75.8283 21.8021C77.1123 21.8021 78.2583 22.0241 79.2663 22.4681C80.2863 22.9001 81.1443 23.5181 81.8403 24.3221C82.5363 25.1261 83.0643 26.0981 83.4243 27.2381C83.7963 28.3661 83.9823 29.6321 83.9823 31.0361C83.9823 32.4401 83.7963 33.7061 83.4243 34.8341C83.0643 35.9621 82.5363 36.9281 81.8403 37.7321C81.1443 38.5361 80.2863 39.1541 79.2663 39.5861C78.2583 40.0181 77.1123 40.2341 75.8283 40.2341C74.5443 40.2341 73.3923 40.0181 72.3723 39.5861C71.3643 39.1541 70.5063 38.5361 69.7983 37.7321C69.1023 36.9281 68.5683 35.9621 68.1963 34.8341C67.8363 33.7061 67.6563 32.4401 67.6563 31.0361C67.6563 29.6321 67.8363 28.3661 68.1963 27.2381C68.5683 26.0981 69.1023 25.1261 69.7983 24.3221C70.5063 23.5181 71.3643 22.9001 72.3723 22.4681C73.3923 22.0241 74.5443 21.8021 75.8283 21.8021ZM75.8283 38.8841C76.8963 38.8841 77.8263 38.7041 78.6183 38.3441C79.4223 37.9721 80.0883 37.4441 80.6163 36.7601C81.1563 36.0761 81.5583 35.2541 81.8223 34.2941C82.0863 33.3221 82.2183 32.2361 82.2183 31.0361C82.2183 29.8481 82.0863 28.7681 81.8223 27.7961C81.5583 26.8241 81.1563 25.9961 80.6163 25.3121C80.0883 24.6161 79.4223 24.0821 78.6183 23.7101C77.8263 23.3381 76.8963 23.1521 75.8283 23.1521C74.7603 23.1521 73.8243 23.3381 73.0203 23.7101C72.2283 24.0821 71.5623 24.6161 71.0223 25.3121C70.4943 25.9961 70.0923 26.8241 69.8163 27.7961C69.5523 28.7681 69.4203 29.8481 69.4203 31.0361C69.4203 32.2361 69.5523 33.3221 69.8163 34.2941C70.0923 35.2541 70.4943 36.0761 71.0223 36.7601C71.5623 37.4441 72.2283 37.9721 73.0203 38.3441C73.8243 38.7041 74.7603 38.8841 75.8283 38.8841Z" fill="#CBCBCB"/>
    <path d="M88.6485 26.4101C88.9245 25.6781 89.2365 25.0301 89.5845 24.4661C89.9445 23.8901 90.3525 23.4041 90.8085 23.0081C91.2765 22.6121 91.7925 22.3121 92.3565 22.1081C92.9325 21.8921 93.5685 21.7841 94.2645 21.7841C94.6365 21.7841 95.0025 21.8201 95.3625 21.8921C95.7225 21.9521 96.0405 22.0661 96.3165 22.2341L96.1725 23.4221C96.1125 23.6141 95.9985 23.7101 95.8305 23.7101C95.6865 23.7101 95.4645 23.6681 95.1645 23.5841C94.8765 23.5001 94.4925 23.4581 94.0125 23.4581C93.3165 23.4581 92.6985 23.5661 92.1585 23.7821C91.6305 23.9861 91.1505 24.2981 90.7185 24.7181C90.2985 25.1381 89.9265 25.6601 89.6025 26.2841C89.2905 26.8961 89.0025 27.6041 88.7385 28.4081V40.0001H87.0105V22.0901H87.9285C88.1325 22.0901 88.2765 22.1321 88.3605 22.2161C88.4445 22.3001 88.4985 22.4441 88.5225 22.6481L88.6485 26.4101Z" fill="#CBCBCB"/>
    <path d="M102.833 40.2881C101.621 40.2881 100.673 39.9521 99.9891 39.2801C99.3171 38.6081 98.9811 37.5701 98.9811 36.1661V23.9261H96.4071C96.2751 23.9261 96.1671 23.8901 96.0831 23.8181C95.9991 23.7461 95.9571 23.6441 95.9571 23.5121V22.8461L99.0171 22.6301L99.4491 16.2221C99.4731 16.1141 99.5211 16.0181 99.5931 15.9341C99.6651 15.8501 99.7671 15.8081 99.8991 15.8081H100.709V22.6481H106.361V23.9261H100.709V36.0761C100.709 36.5681 100.769 36.9941 100.889 37.3541C101.021 37.7021 101.195 37.9901 101.411 38.2181C101.639 38.4461 101.903 38.6141 102.203 38.7221C102.503 38.8301 102.827 38.8841 103.175 38.8841C103.607 38.8841 103.979 38.8241 104.291 38.7041C104.603 38.5721 104.873 38.4341 105.101 38.2901C105.329 38.1341 105.515 37.9961 105.659 37.8761C105.803 37.7441 105.917 37.6781 106.001 37.6781C106.097 37.6781 106.193 37.7381 106.289 37.8581L106.757 38.6141C106.301 39.1181 105.719 39.5261 105.011 39.8381C104.315 40.1381 103.589 40.2881 102.833 40.2881Z" fill="#CBCBCB"/>
    <path d="M129.953 22.0901L122.393 40.0001H120.881L113.321 22.0901H114.671C114.839 22.0901 114.977 22.1381 115.085 22.2341C115.193 22.3181 115.265 22.4141 115.301 22.5221L121.223 36.6521C121.403 37.1801 121.547 37.7021 121.655 38.2181C121.763 37.7021 121.913 37.1801 122.105 36.6521L128.045 22.5221C128.105 22.3901 128.183 22.2881 128.279 22.2161C128.387 22.1321 128.513 22.0901 128.657 22.0901H129.953Z" fill="#CBCBCB"/>
    <path d="M133.75 22.0901V40.0001H132.04V22.0901H133.75ZM134.488 15.9161C134.488 16.1321 134.44 16.3361 134.344 16.5281C134.26 16.7081 134.146 16.8701 134.002 17.0141C133.858 17.1581 133.69 17.2721 133.498 17.3561C133.306 17.4401 133.102 17.4821 132.886 17.4821C132.67 17.4821 132.466 17.4401 132.274 17.3561C132.082 17.2721 131.914 17.1581 131.77 17.0141C131.626 16.8701 131.512 16.7081 131.428 16.5281C131.344 16.3361 131.302 16.1321 131.302 15.9161C131.302 15.7001 131.344 15.4961 131.428 15.3041C131.512 15.1001 131.626 14.9261 131.77 14.7821C131.914 14.6381 132.082 14.5241 132.274 14.4401C132.466 14.3561 132.67 14.3141 132.886 14.3141C133.102 14.3141 133.306 14.3561 133.498 14.4401C133.69 14.5241 133.858 14.6381 134.002 14.7821C134.146 14.9261 134.26 15.1001 134.344 15.3041C134.44 15.4961 134.488 15.7001 134.488 15.9161Z" fill="#CBCBCB"/>
    <path d="M150.621 29.2361C150.621 28.2761 150.483 27.4181 150.207 26.6621C149.943 25.8941 149.565 25.2461 149.073 24.7181C148.581 24.1901 147.993 23.7881 147.309 23.5121C146.637 23.2241 145.893 23.0801 145.077 23.0801C144.153 23.0801 143.325 23.2241 142.593 23.5121C141.861 23.8001 141.225 24.2141 140.685 24.7541C140.157 25.2941 139.731 25.9421 139.407 26.6981C139.083 27.4541 138.867 28.3001 138.759 29.2361H150.621ZM138.669 30.3341V30.6761C138.669 32.0201 138.825 33.2021 139.137 34.2221C139.449 35.2421 139.893 36.1001 140.469 36.7961C141.045 37.4801 141.741 37.9961 142.557 38.3441C143.373 38.6921 144.285 38.8661 145.293 38.8661C146.193 38.8661 146.973 38.7701 147.633 38.5781C148.293 38.3741 148.845 38.1521 149.289 37.9121C149.745 37.6601 150.105 37.4381 150.369 37.2461C150.633 37.0421 150.825 36.9401 150.945 36.9401C151.101 36.9401 151.221 37.0001 151.305 37.1201L151.773 37.6961C151.485 38.0561 151.101 38.3921 150.621 38.7041C150.153 39.0161 149.625 39.2861 149.037 39.5141C148.461 39.7301 147.837 39.9041 147.165 40.0361C146.505 40.1681 145.839 40.2341 145.167 40.2341C143.943 40.2341 142.827 40.0241 141.819 39.6041C140.811 39.1721 139.947 38.5481 139.227 37.7321C138.507 36.9161 137.949 35.9201 137.553 34.7441C137.169 33.5561 136.977 32.2001 136.977 30.6761C136.977 29.3921 137.157 28.2101 137.517 27.1301C137.889 26.0381 138.417 25.1021 139.101 24.3221C139.797 23.5301 140.643 22.9121 141.639 22.4681C142.647 22.0241 143.787 21.8021 145.059 21.8021C146.067 21.8021 147.003 21.9761 147.867 22.3241C148.731 22.6721 149.481 23.1821 150.117 23.8541C150.753 24.5141 151.251 25.3301 151.611 26.3021C151.983 27.2741 152.169 28.3901 152.169 29.6501C152.169 29.9141 152.133 30.0941 152.061 30.1901C151.989 30.2861 151.869 30.3341 151.701 30.3341H138.669Z" fill="#CBCBCB"/>
    <path d="M178.595 22.0901L172.619 40.0001H171.341C171.137 40.0001 170.999 39.8741 170.927 39.6221L166.031 25.0781C165.971 24.8981 165.917 24.7181 165.869 24.5381C165.821 24.3581 165.779 24.1781 165.743 23.9981C165.683 24.3581 165.593 24.7181 165.473 25.0781L160.505 39.6221C160.433 39.8741 160.289 40.0001 160.073 40.0001H158.849L152.873 22.0901H154.169C154.337 22.0901 154.475 22.1381 154.583 22.2341C154.691 22.3181 154.763 22.4141 154.799 22.5221L159.317 36.6521C159.389 36.9281 159.455 37.1981 159.515 37.4621C159.575 37.7141 159.623 37.9661 159.659 38.2181C159.731 37.9661 159.803 37.7141 159.875 37.4621C159.947 37.1981 160.031 36.9281 160.127 36.6521L164.915 22.3961C164.999 22.1321 165.167 22.0001 165.419 22.0001H166.121C166.385 22.0001 166.559 22.1321 166.643 22.3961L171.395 36.6521C171.479 36.9281 171.557 37.1921 171.629 37.4441C171.701 37.6961 171.767 37.9481 171.827 38.2001C171.875 37.9481 171.923 37.6961 171.971 37.4441C172.031 37.1921 172.103 36.9281 172.187 36.6521L176.741 22.5221C176.789 22.3901 176.867 22.2881 176.975 22.2161C177.083 22.1321 177.209 22.0901 177.353 22.0901H178.595Z" fill="#CBCBCB"/>
    <path d="M185.022 40.0001V21.3341H188.478C188.826 21.3341 189.114 21.4121 189.342 21.5681C189.582 21.7241 189.75 21.9581 189.846 22.2701L190.17 23.3501C190.53 23.0141 190.902 22.7021 191.286 22.4141C191.67 22.1261 192.078 21.8861 192.51 21.6941C192.954 21.4901 193.428 21.3341 193.932 21.2261C194.448 21.1061 195.006 21.0461 195.606 21.0461C196.626 21.0461 197.526 21.2261 198.306 21.5861C199.098 21.9341 199.764 22.4261 200.304 23.0621C200.844 23.6861 201.252 24.4361 201.528 25.3121C201.804 26.1761 201.942 27.1181 201.942 28.1381V40.0001H196.362V28.1381C196.362 27.2261 196.152 26.5181 195.732 26.0141C195.312 25.4981 194.694 25.2401 193.878 25.2401C193.266 25.2401 192.69 25.3721 192.15 25.6361C191.61 25.9001 191.094 26.2541 190.602 26.6981V40.0001H185.022Z" fill="#DA3555"/>
    <path d="M212.096 21.0461C213.332 21.0461 214.46 21.2381 215.48 21.6221C216.512 22.0061 217.394 22.5641 218.126 23.2961C218.87 24.0281 219.446 24.9281 219.854 25.9961C220.274 27.0521 220.484 28.2521 220.484 29.5961C220.484 30.0161 220.466 30.3581 220.43 30.6221C220.394 30.8861 220.328 31.0961 220.232 31.2521C220.136 31.4081 220.004 31.5161 219.836 31.5761C219.68 31.6361 219.476 31.6661 219.224 31.6661H208.46C208.64 33.2261 209.114 34.3601 209.882 35.0681C210.65 35.7641 211.64 36.1121 212.852 36.1121C213.5 36.1121 214.058 36.0341 214.526 35.8781C214.994 35.7221 215.408 35.5481 215.768 35.3561C216.14 35.1641 216.476 34.9901 216.776 34.8341C217.088 34.6781 217.412 34.6001 217.748 34.6001C218.192 34.6001 218.528 34.7621 218.756 35.0861L220.376 37.0841C219.8 37.7441 219.176 38.2841 218.504 38.7041C217.844 39.1121 217.16 39.4361 216.452 39.6761C215.756 39.9041 215.054 40.0601 214.346 40.1441C213.65 40.2401 212.984 40.2881 212.348 40.2881C211.04 40.2881 209.81 40.0781 208.658 39.6581C207.518 39.2261 206.516 38.5901 205.652 37.7501C204.8 36.9101 204.122 35.8661 203.618 34.6181C203.126 33.3701 202.88 31.9181 202.88 30.2621C202.88 29.0141 203.09 27.8321 203.51 26.7161C203.942 25.6001 204.554 24.6221 205.346 23.7821C206.15 22.9421 207.116 22.2761 208.244 21.7841C209.384 21.2921 210.668 21.0461 212.096 21.0461ZM212.204 24.8981C211.136 24.8981 210.302 25.2041 209.702 25.8161C209.102 26.4161 208.706 27.2861 208.514 28.4261H215.48C215.48 27.9821 215.42 27.5501 215.3 27.1301C215.192 26.7101 215.006 26.3381 214.742 26.0141C214.49 25.6781 214.154 25.4081 213.734 25.2041C213.314 25.0001 212.804 24.8981 212.204 24.8981Z" fill="#DA3555"/>
    <path d="M219.727 21.3341H224.191C224.587 21.3341 224.929 21.4241 225.217 21.6041C225.505 21.7841 225.679 22.0181 225.739 22.3061L227.611 30.6761C227.755 31.3121 227.887 31.9301 228.007 32.5301C228.127 33.1301 228.235 33.7241 228.331 34.3121C228.499 33.7241 228.673 33.1361 228.853 32.5481C229.045 31.9481 229.231 31.3241 229.411 30.6761L231.751 22.2881C231.823 22.0121 231.997 21.7841 232.273 21.6041C232.549 21.4121 232.867 21.3161 233.227 21.3161H235.711C236.107 21.3161 236.443 21.4121 236.719 21.6041C237.007 21.7841 237.187 22.0121 237.259 22.2881L239.491 30.6761C239.659 31.3121 239.827 31.9301 239.995 32.5301C240.175 33.1301 240.343 33.7361 240.499 34.3481C240.595 33.7481 240.709 33.1541 240.841 32.5661C240.985 31.9661 241.135 31.3361 241.291 30.6761L243.271 22.3061C243.331 22.0181 243.499 21.7841 243.775 21.6041C244.063 21.4241 244.387 21.3341 244.747 21.3341H248.995L243.199 40.0001H238.663C238.423 40.0001 238.219 39.9281 238.051 39.7841C237.883 39.6401 237.751 39.4001 237.655 39.0641L234.991 29.7581C234.871 29.3381 234.757 28.9241 234.649 28.5161C234.541 28.1081 234.445 27.7001 234.361 27.2921C234.277 27.7121 234.181 28.1321 234.073 28.5521C233.977 28.9601 233.863 29.3741 233.731 29.7941L231.031 39.0641C230.851 39.6881 230.455 40.0001 229.843 40.0001H225.523L219.727 21.3341Z" fill="#DA3555"/>
    <path d="M260.784 25.4201C260.64 25.6481 260.484 25.8101 260.316 25.9061C260.16 26.0021 259.956 26.0501 259.704 26.0501C259.44 26.0501 259.176 25.9961 258.912 25.8881C258.648 25.7681 258.36 25.6421 258.048 25.5101C257.748 25.3781 257.406 25.2581 257.022 25.1501C256.638 25.0301 256.2 24.9701 255.708 24.9701C255 24.9701 254.454 25.1081 254.07 25.3841C253.698 25.6481 253.512 26.0201 253.512 26.5001C253.512 26.8481 253.632 27.1361 253.872 27.3641C254.124 27.5921 254.454 27.7961 254.862 27.9761C255.27 28.1441 255.732 28.3061 256.248 28.4621C256.764 28.6181 257.292 28.7921 257.832 28.9841C258.372 29.1761 258.9 29.4041 259.416 29.6681C259.932 29.9201 260.394 30.2381 260.802 30.6221C261.21 30.9941 261.534 31.4501 261.774 31.9901C262.026 32.5301 262.152 33.1781 262.152 33.9341C262.152 34.8581 261.984 35.7101 261.648 36.4901C261.312 37.2701 260.808 37.9421 260.136 38.5061C259.476 39.0701 258.654 39.5081 257.67 39.8201C256.698 40.1321 255.576 40.2881 254.304 40.2881C253.668 40.2881 253.032 40.2281 252.396 40.1081C251.76 39.9881 251.142 39.8261 250.542 39.6221C249.954 39.4181 249.408 39.1781 248.904 38.9021C248.4 38.6141 247.968 38.3081 247.608 37.9841L248.904 35.9321C249.06 35.6921 249.246 35.5061 249.462 35.3741C249.678 35.2301 249.96 35.1581 250.308 35.1581C250.632 35.1581 250.92 35.2301 251.172 35.3741C251.436 35.5181 251.718 35.6741 252.018 35.8421C252.318 36.0101 252.666 36.1661 253.062 36.3101C253.47 36.4541 253.98 36.5261 254.592 36.5261C255.024 36.5261 255.39 36.4841 255.69 36.4001C255.99 36.3041 256.23 36.1781 256.41 36.0221C256.59 35.8661 256.722 35.6921 256.806 35.5001C256.89 35.3081 256.932 35.1101 256.932 34.9061C256.932 34.5341 256.806 34.2281 256.554 33.9881C256.302 33.7481 255.972 33.5441 255.564 33.3761C255.156 33.1961 254.688 33.0341 254.16 32.8901C253.644 32.7341 253.116 32.5601 252.576 32.3681C252.036 32.1761 251.502 31.9481 250.974 31.6841C250.458 31.4081 249.996 31.0661 249.588 30.6581C249.18 30.2381 248.85 29.7281 248.598 29.1281C248.346 28.5281 248.22 27.8021 248.22 26.9501C248.22 26.1581 248.37 25.4081 248.67 24.7001C248.982 23.9801 249.444 23.3501 250.056 22.8101C250.668 22.2701 251.436 21.8441 252.36 21.5321C253.284 21.2081 254.364 21.0461 255.6 21.0461C256.272 21.0461 256.92 21.1061 257.544 21.2261C258.18 21.3461 258.774 21.5141 259.326 21.7301C259.878 21.9461 260.382 22.2041 260.838 22.5041C261.294 22.7921 261.696 23.1101 262.044 23.4581L260.784 25.4201Z" fill="#DA3555"/>
    <path fill-rule="evenodd" clip-rule="evenodd" d="M26.868 24.541C27.5709 25.2439 27.5709 26.3876 26.868 27.0904C26.5166 27.4418 26.0544 27.6179 25.5929 27.6172C25.2711 27.6172 24.9513 27.5264 24.6666 27.3552L10.9883 13.6769C10.5695 12.9851 10.6541 12.0718 11.2517 11.4741C11.9539 10.772 13.099 10.772 13.8011 11.4741L26.868 24.541ZM5.70658 25.9598L5.73753 25.8924L11.8831 31.6762L6.25401 37.3052C5.87439 37.6849 5.36822 37.938 4.8311 37.94H4.82147C3.92536 37.94 3.02719 37.6237 2.30989 36.9861L1.26866 36.0611C0.404189 35.2916 -0.0552138 34.2002 0.00530637 33.0255C0.0548229 32.0544 0.516977 31.1494 1.20402 30.4623L5.70658 25.9598ZM16.9963 36.6767L17.9275 37.6078C19.0093 38.6903 19.0093 40.4509 17.9282 41.5327C17.4035 42.0575 16.7075 42.3456 15.9654 42.3456C15.2234 42.3456 14.5274 42.0575 14.0027 41.5327L8.98705 36.5171L12.87 32.3488H16.3086C16.6889 32.3488 16.9963 32.6562 16.9963 33.0365V36.6767ZM14.0439 33.7249L15.6209 35.3019V33.7249H14.0439ZM22.5738 27.2073L13.3803 31.2147C13.3734 31.2072 13.3682 31.1985 13.363 31.1899C13.3568 31.1796 13.3507 31.1693 13.3417 31.1611L6.34342 24.574L10.6238 15.2573L22.5738 27.2073Z" fill="#CBCBCB"/>
    <path d="M19.7473 14.4685C19.3669 14.4685 19.0595 14.1611 19.0595 13.7808V10.3421C19.0595 9.96183 19.3669 9.65442 19.7473 9.65442C20.1276 9.65442 20.435 9.96183 20.435 10.3421V13.7808C20.435 14.1611 20.1276 14.4685 19.7473 14.4685Z" fill="#DA3555"/>
    <path d="M22.4658 15.8117C22.2898 15.8117 22.1137 15.7443 21.9796 15.6102C21.7107 15.3412 21.7107 14.9066 21.9796 14.6377L25.4183 11.1991C25.6872 10.9302 26.1218 10.9302 26.3907 11.1991C26.6596 11.468 26.6596 11.9026 26.3907 12.1715L22.9521 15.6102C22.818 15.7443 22.6419 15.8117 22.4658 15.8117Z" fill="#DA3555"/>
    <path d="M27.3123 18.5949H23.8736C23.4933 18.5949 23.1859 18.2875 23.1859 17.9072C23.1859 17.5269 23.4933 17.2194 23.8736 17.2194H27.3123C27.6926 17.2194 28 17.5269 28 17.9072C28 18.2875 27.6926 18.5949 27.3123 18.5949Z" fill="#DA3555"/>
  </g>
  <defs>
    <clipPath id="clip0_2475_209">
      <rect width="262" height="52" fill="white"/>
    </clipPath>
  </defs>
</svg>
