<svg width="166" height="52" viewBox="0 0 166 52" fill="none" xmlns="http://www.w3.org/2000/svg">
  <path d="M136.475 34.3556H165.999V37.2742H136.475V34.3556ZM151.272 21.639H151.237C150.888 22.4382 149.457 23.6542 147.119 25.1482C145.095 26.4338 142.861 27.7889 139.965 29.3871L138.254 26.677C141.046 25.1482 143.245 23.8974 145.583 22.3339C148.759 20.1797 149.492 18.6857 149.492 15.2807V11.7715H152.982V15.2807C152.982 18.6857 153.506 20.1102 157.275 22.5771C159.473 24.0017 161.497 25.1482 164.255 26.6423L162.579 29.3176C159.997 27.8583 157.449 26.3991 155.355 25.0788C153.087 23.6542 151.656 22.4382 151.272 21.639Z" fill="#DA3555"/>
  <path d="M128.742 41.479H125.287V30.3259H117.539V41.479H114.084V30.3259H106.65V27.4073H136.175V30.3259H128.742V41.479ZM110.769 10.5908H114.224V20.2846H132.301V23.2379H110.769V10.5908Z" fill="#DA3555"/>
  <path d="M102.161 10.7295V24.9401H81.0121V10.7642H84.4323V15.1421H98.741V10.7295H102.161ZM98.9155 41.4787H95.4605V31.3679H87.7128V41.4787H84.2578V31.3679H76.8242V28.4494H106.349V31.3679H98.9155V41.4787ZM84.4323 18.0607V21.9868H98.741V18.0607H84.4323Z" fill="#CBCBCB"/>
  <path d="M67.9745 25.5657H76.5249V28.4843H47V25.5657H55.5503V21.5353H58.9007V25.5657H64.6242V21.5353H67.9745V25.5657ZM74.2215 19.4506L72.9651 22.2649C70.5222 21.3268 67.9745 20.2845 66.1947 19.5201C63.3329 18.2693 62.0416 17.4007 61.7973 16.7405H61.7624C61.5181 17.4354 60.2269 18.2693 57.3651 19.5201C55.5852 20.2845 53.0725 21.2921 50.5946 22.2302L49.2685 19.4506C52.549 18.304 54.7826 17.4007 56.7369 16.4973C59.145 15.3854 60.0524 14.3084 60.0524 12.5016V10H63.4725V12.5016C63.4725 14.3084 64.345 15.316 66.8229 16.4973C68.7423 17.4007 71.0457 18.3388 74.2215 19.4506ZM61.7973 36.1976H61.7275C61.3436 36.823 60.4712 37.4137 57.8537 38.734C56.1436 39.6026 53.8054 40.7144 50.7691 42L49.3383 39.2204C52.7235 37.7611 54.9571 36.7535 56.6671 35.8502C59.5987 34.3214 60.0175 33.5223 60.0175 32.063V30.0825H63.4725V32.063C63.4725 33.5223 63.8913 34.3561 66.8229 35.8502C68.498 36.7188 70.8014 37.7611 74.1517 39.1857L72.7208 41.9305C69.7893 40.7492 67.4161 39.6026 65.6363 38.6992C63.0188 37.3789 62.1114 36.7883 61.7973 36.1976Z" fill="#CBCBCB"/>
  <path fill-rule="evenodd" clip-rule="evenodd" d="M38.6282 23.9028C39.6388 24.9133 39.6388 26.5576 38.6282 27.568C38.123 28.0732 37.4585 28.3264 36.795 28.3254C36.3323 28.3254 35.8725 28.1949 35.4632 27.9487L15.7979 8.2834C15.1958 7.2888 15.3174 5.97575 16.1766 5.11643C17.1862 4.10702 18.8325 4.10702 19.8419 5.11643L38.6282 23.9028ZM8.20437 25.9426L8.24886 25.8457L17.0844 34.161L8.99141 42.2539C8.44563 42.7998 7.7179 43.1637 6.94569 43.1665H6.93184C5.6435 43.1665 4.3522 42.7118 3.32094 41.7951L1.82396 40.4652C0.581103 39.3589 -0.079381 37.7898 0.00762899 36.1009C0.078819 34.7048 0.743259 33.4037 1.73102 32.4158L8.20437 25.9426ZM24.4356 41.3503L25.7744 42.6889C27.3297 44.2452 27.3297 46.7765 25.7754 48.3318C25.0211 49.0863 24.0204 49.5005 22.9535 49.5005C21.8867 49.5005 20.8861 49.0863 20.1317 48.3318L12.9207 41.1208L18.5032 35.128H23.4469C23.9937 35.128 24.4356 35.57 24.4356 36.1168V41.3503ZM20.191 37.1065L22.4582 39.3737V37.1065H20.191ZM32.4544 27.7361L19.2369 33.4975C19.227 33.4868 19.2195 33.4743 19.212 33.4619C19.2031 33.4471 19.1943 33.4323 19.1814 33.4205L9.11995 23.9502L15.2739 10.5556L32.4544 27.7361Z" fill="#CBCBCB"/>
  <path d="M28.3892 9.42122C27.8423 9.42122 27.4004 8.97927 27.4004 8.43251V3.48868C27.4004 2.94196 27.8423 2.5 28.3892 2.5C28.936 2.5 29.378 2.94196 29.378 3.48868V8.43251C29.378 8.97927 28.936 9.42122 28.3892 9.42122Z" fill="#DA3555"/>
  <path d="M32.2976 11.3522C32.0445 11.3522 31.7913 11.2553 31.5985 11.0625C31.2119 10.6757 31.2119 10.0509 31.5985 9.6643L36.5424 4.72061C36.929 4.33401 37.5538 4.33401 37.9404 4.72061C38.327 5.10721 38.327 5.73204 37.9404 6.11864L32.9967 11.0625C32.8039 11.2553 32.5507 11.3522 32.2976 11.3522Z" fill="#DA3555"/>
  <path d="M39.2665 15.3545H34.3227C33.7759 15.3545 33.334 14.9126 33.334 14.3658C33.334 13.819 33.7759 13.377 34.3227 13.377H39.2665C39.8133 13.377 40.2552 13.819 40.2552 14.3658C40.2552 14.9126 39.8133 15.3545 39.2665 15.3545Z" fill="#DA3555"/>
</svg>
