<svg width="142" height="143" viewBox="0 0 142 143" fill="none" xmlns="http://www.w3.org/2000/svg">
  <path d="M127.694 37.2546C126.333 32.1663 122.322 28.1548 117.233 26.794C108.003 24.3208 71.0007 24.3208 71.0007 24.3208C71.0007 24.3208 33.9978 24.3208 24.7678 26.794C19.6795 28.1548 15.668 32.1663 14.3072 37.2546C11.834 46.4846 11.834 71.6541 11.834 71.6541C11.834 71.6541 11.834 96.8236 14.3072 106.054C15.668 111.142 19.6795 115.153 24.7678 116.514C33.9978 118.987 71.0007 118.987 71.0007 118.987C71.0007 118.987 108.003 118.987 117.233 116.514C122.328 115.153 126.333 111.142 127.694 106.054C130.167 96.8236 130.167 71.6541 130.167 71.6541C130.167 71.6541 130.167 46.4846 127.694 37.2546ZM59.1673 87.0256V56.2826C59.1673 54.0047 61.6346 52.5847 63.6048 53.7207L90.2298 69.0922C92.2001 70.2282 92.2001 73.08 90.2298 74.216L63.6048 89.5875C61.6346 90.7295 59.1673 89.3035 59.1673 87.0256Z" fill="#ADADAD"/>
</svg>
