<svg width="142" height="143" viewBox="0 0 142 143" fill="none" xmlns="http://www.w3.org/2000/svg">
  <path d="M71.0007 24.3208C71.0007 24.3208 33.9951 24.3206 24.7651 26.7938C19.6709 28.1546 15.6678 32.1636 14.307 37.252C11.8338 46.482 11.834 71.6541 11.834 71.6541C11.834 71.6541 11.8338 96.8263 14.307 106.056C15.6678 111.151 19.6768 115.154 24.7651 116.514C33.9951 118.988 71.0007 118.987 71.0007 118.987C71.0007 118.987 108.006 118.988 117.236 116.514C122.325 115.154 126.334 111.145 127.694 106.056C130.168 96.8263 130.167 71.6541 130.167 71.6541C130.167 71.6541 130.168 46.482 127.694 37.252C126.334 32.1636 122.325 28.1546 117.236 26.7938C108.006 24.3206 71.0007 24.3208 71.0007 24.3208ZM71.0007 36.1541C88.0525 36.1541 109.405 36.9447 114.174 38.2227C115.174 38.4889 115.993 39.3085 116.265 40.3143C117.691 45.6275 118.334 61.8443 118.334 71.6541C118.334 81.464 117.691 97.6749 116.265 102.994C115.999 103.994 115.18 104.813 114.174 105.086C109.411 106.364 88.0525 107.154 71.0007 107.154C53.9547 107.154 32.6022 106.364 27.8275 105.086C26.8276 104.819 26.008 104 25.7358 102.994C24.3099 97.6808 23.6673 81.464 23.6673 71.6541C23.6673 61.8443 24.3099 45.6277 25.7358 40.3027C26.0021 39.3087 26.8216 38.4889 27.8275 38.2227C32.5904 36.9447 53.9488 36.1541 71.0007 36.1541ZM59.1673 51.1538V92.1545L94.6673 71.6541L59.1673 51.1538Z" fill="#ADADAD"/>
</svg>
