<?xml version="1.0" standalone="no"?>
<!DOCTYPE svg PUBLIC "-//W3C//DTD SVG 20010904//EN"
 "http://www.w3.org/TR/2001/REC-SVG-20010904/DTD/svg10.dtd">
<svg version="1.0" xmlns="http://www.w3.org/2000/svg"
 width="700.000000pt" height="700.000000pt" viewBox="0 0 700.000000 700.000000"
 preserveAspectRatio="xMidYMid meet">
<metadata>
Created by potrace 1.14, written by Peter Selinger 2001-2017
</metadata>
<g transform="translate(0.000000,700.000000) scale(0.100000,-0.100000)"
fill="#000000" stroke="none">
<path d="M4701 6703 c-19 -10 -44 -31 -55 -46 -20 -27 -21 -43 -24 -395 -4
-424 -1 -454 55 -492 47 -32 125 -35 165 -5 57 42 58 48 58 467 0 362 -1 385
-20 415 -38 64 -117 88 -179 56z"/>
<path d="M3220 6446 c-115 -24 -204 -92 -255 -194 -44 -89 -50 -175 -19 -281
15 -54 42 -81 1418 -1458 1027 -1027 1413 -1407 1442 -1419 50 -21 78 -27 139
-27 110 -2 182 26 259 100 119 114 146 290 67 438 -19 36 -377 400 -1379 1402
-744 745 -1371 1367 -1393 1383 -75 54 -184 76 -279 56z"/>
<path d="M5964 6435 c-35 -15 -745 -721 -771 -768 -10 -17 -18 -39 -17 -47 1
-8 2 -27 3 -42 2 -40 55 -96 99 -105 44 -8 68 -5 101 12 33 17 739 723 756
755 27 52 22 110 -12 150 -41 50 -106 68 -159 45z"/>
<path d="M2855 5474 c-25 -54 -45 -99 -45 -101 0 -2 -15 -37 -34 -76 -40 -85
-94 -200 -130 -279 -45 -101 -77 -169 -147 -321 -38 -82 -69 -150 -69 -152 0
-2 -25 -56 -56 -121 -31 -66 -76 -164 -101 -219 -25 -55 -61 -134 -80 -175
-85 -181 -153 -334 -153 -344 0 -6 46 -55 103 -108 56 -53 120 -114 143 -135
22 -21 103 -97 180 -169 76 -73 155 -146 174 -164 19 -18 97 -91 174 -164 76
-72 150 -142 165 -155 14 -13 90 -85 168 -159 79 -74 153 -143 165 -154 13
-11 53 -48 89 -84 l66 -64 689 300 c379 165 698 304 709 310 11 5 119 52 239
105 121 52 222 98 225 100 5 5 -2412 2425 -2422 2425 -4 0 -27 -43 -52 -96z"/>
<path d="M5556 5170 c-116 -35 -125 -198 -15 -255 44 -23 774 -23 821 0 45 22
68 56 74 113 5 39 2 53 -18 82 -46 69 -48 69 -462 69 -204 0 -384 -4 -400 -9z"/>
<path d="M1414 2907 c-276 -276 -515 -522 -531 -547 -54 -80 -107 -197 -119
-260 -3 -14 -9 -43 -14 -65 -15 -67 -5 -232 19 -320 26 -95 88 -213 150 -287
57 -67 330 -309 396 -350 111 -69 233 -107 370 -114 85 -4 155 10 230 48 25
13 261 240 643 622 l603 601 -78 74 c-43 40 -134 126 -203 191 -69 65 -145
137 -170 160 -77 72 -321 302 -395 372 -38 36 -83 78 -100 93 -32 30 -169 159
-250 237 l-51 48 -500 -503z"/>
<path d="M3309 2042 c-56 -59 -269 -287 -399 -427 -122 -130 -166 -178 -194
-210 -15 -16 -54 -58 -87 -91 l-59 -62 522 -522 c287 -288 545 -540 573 -560
96 -71 223 -108 355 -103 368 14 623 388 505 739 -35 104 -77 164 -210 298
l-113 115 0 386 c-1 426 0 421 -65 469 -28 20 -40 21 -401 23 l-374 2 -53 -57z
m612 -264 c1 -38 0 -172 -1 -251 0 -26 -14 -14 -155 127 -85 86 -155 158 -155
161 0 3 70 5 155 5 l155 0 1 -42z"/>
</g>
</svg>
